<svg width="7" height="12" viewBox="0 0 7 12" fill="none" xmlns="http://www.w3.org/2000/svg">
<path d="M4.83937e-05 5.575C4.83995e-05 5.44167 0.025049 5.31233 0.0750492 5.187C0.125049 5.06167 0.191716 4.95767 0.275049 4.875L4.87505 0.275C5.05838 0.0916662 5.29172 -5.50035e-08 5.57505 -4.26186e-08C5.85838 -3.02337e-08 6.09172 0.0916663 6.27505 0.275C6.45838 0.458333 6.55005 0.691667 6.55005 0.975C6.55005 1.25833 6.45838 1.49167 6.27505 1.675L2.37505 5.575L6.27505 9.475C6.45838 9.65833 6.55005 9.89167 6.55005 10.175C6.55005 10.4583 6.45838 10.6917 6.27505 10.875C6.09172 11.0583 5.85838 11.15 5.57505 11.15C5.29172 11.15 5.05838 11.0583 4.87505 10.875L0.275049 6.275C0.175049 6.175 0.104048 6.06667 0.0620487 5.95C0.0200488 5.83333 -0.00061823 5.70833 4.83937e-05 5.575Z" fill="#23C26A"/>
</svg>
