<svg width="181" height="50" viewBox="0 0 181 50" fill="none" xmlns="http://www.w3.org/2000/svg">
<path d="M41.2569 7.55632C41.0756 8.53351 40.1154 9.17361 39.1373 8.99252C39.0548 8.97817 38.9758 8.95666 38.9004 8.93156H38.8986C38.4805 8.78991 38.1538 8.49227 37.9564 8.11394V8.11215C37.7572 7.73562 37.6908 7.28019 37.7949 6.8176C38.0049 5.88703 38.965 5.24692 39.8965 5.45671C39.9252 5.46208 39.9539 5.46926 39.9808 5.47822H39.9826C40.5067 5.62346 40.9177 5.99461 41.1312 6.46976C41.2748 6.79608 41.3269 7.17082 41.2569 7.55632Z" fill="#3DDC84"/>
<path d="M43.1057 8.50835C42.8347 9.27217 42.3286 9.932 41.6376 10.3964C41.3541 10.5882 41.0472 10.7406 40.7331 10.85C44.8609 15.7413 46.7274 22.4382 45.2091 29.162C42.6355 40.5745 31.2894 47.7394 19.8679 45.1682C8.4446 42.5952 1.27296 31.2598 3.84836 19.8473C6.42197 8.43663 17.7681 1.27177 29.1914 3.84473C31.5873 4.38443 33.7948 5.30962 35.7672 6.54142C35.7797 6.48225 35.7905 6.42487 35.8031 6.3675C36.0525 5.26121 36.7848 4.3665 37.7252 3.85011C35.3975 2.36371 32.7736 1.24846 29.9218 0.604768C16.7074 -2.36983 3.58454 5.91745 0.605335 19.1176C-2.37208 32.3177 5.92304 45.43 19.1374 48.4064C32.3483 51.381 45.4729 43.0937 48.4521 29.8918C50.2271 22.0223 47.9945 14.185 43.1057 8.50835ZM41.1297 6.4679C40.7564 6.12544 40.376 5.79373 39.9811 5.47637H39.9793C39.9524 5.46741 39.9219 5.46023 39.895 5.45485C38.9635 5.24507 38.0034 5.88518 37.7934 6.81575C37.6893 7.27655 37.7557 7.73198 37.9549 8.1103V8.11209C38.278 8.37208 38.592 8.64641 38.8971 8.9297H38.8989C38.9743 8.95481 39.0533 8.97812 39.1358 8.99246C40.1157 9.17176 41.0759 8.53166 41.2554 7.55626C41.3254 7.17076 41.2751 6.79602 41.1297 6.4679Z" fill="#3DDC84"/>
<path d="M24.5287 8.40625C15.6288 8.40625 8.41406 15.6141 8.41406 24.5057C8.41406 33.3972 15.6288 40.6051 24.5287 40.6051C33.4286 40.6051 40.6433 33.3972 40.6433 24.5057C40.6433 15.6141 33.4286 8.40625 24.5287 8.40625ZM25.9734 34.5322C25.2681 35.1723 24.1787 35.1203 23.538 34.4156L20.8262 31.4303C21.8707 31.2348 22.5043 30.5427 22.7232 30.3025C23.014 29.9833 23.3047 29.6659 23.5901 29.3504L26.0901 32.0991C26.7308 32.8037 26.6788 33.8939 25.9734 34.5322ZM31.5621 18.3539C29.4982 20.6095 27.4361 22.8704 25.3758 25.1278C24.4372 26.1606 23.4967 27.1862 22.5599 28.2154C22.2369 28.5668 21.9156 28.9218 21.5944 29.2733C21.2695 29.6265 20.907 29.899 20.4081 29.951C19.8768 30.0066 19.4497 29.8363 19.0818 29.5135C19.0028 29.4436 18.9256 29.3683 18.8521 29.2858C18.3585 28.73 17.8596 28.176 17.3625 27.6219C17.0717 27.2992 16.781 26.9782 16.4902 26.6537C15.8998 25.9974 15.3057 25.343 14.7206 24.6796C14.1302 24.009 14.0656 23.0766 14.5555 22.4078L14.5609 22.3989C14.6883 22.2268 14.8463 22.0869 15.0204 21.9847C15.627 21.6207 16.4561 21.6781 17.0591 22.1658C17.1417 22.2268 17.2207 22.3021 17.2943 22.3845C17.8201 22.9726 18.3442 23.5643 18.8682 24.1542C19.2469 24.5828 19.6256 25.0131 20.0007 25.4434C20.0635 25.5187 20.1155 25.5635 20.1658 25.5851H20.1676C20.2465 25.6173 20.3219 25.5743 20.4314 25.4542C23.267 22.3594 26.1116 19.2737 28.9509 16.1843C29.3475 15.7522 29.8123 15.4707 30.4099 15.4707C31.3342 15.4671 32.0611 16.2166 32.0593 17.149C32.0665 17.6205 31.878 18.0078 31.5621 18.3539Z" fill="#3DDC84"/>
<path d="M56.0459 26.625V8.40625H58.6392V26.625H56.0459Z" fill="white"/>
<path d="M73.9733 26.6249H71.4571V19.1911C71.4571 17.8715 71.2471 16.9032 70.8272 16.2864C70.4072 15.6696 69.7701 15.3594 68.914 15.3594C68.3487 15.3594 67.7744 15.5029 67.1929 15.788C66.6114 16.0749 66.0963 16.4657 65.6512 16.9624C65.2062 17.4591 64.8813 18.0274 64.6749 18.6675V26.6231H62.1318V13.3082H64.4434V16.1018C64.8024 15.4921 65.26 14.9614 65.8182 14.5131C66.3745 14.0649 67.008 13.7171 67.7187 13.4714C68.4295 13.2258 69.1778 13.1021 69.9657 13.1021C70.7536 13.1021 71.4122 13.2455 71.9435 13.5342C72.4747 13.8228 72.8857 14.2173 73.1764 14.7158C73.4672 15.216 73.6736 15.8005 73.792 16.4693C73.9123 17.1381 73.9715 17.8464 73.9715 18.5922V26.6249H73.9733Z" fill="white"/>
<path d="M80.47 26.625L75.3066 13.3065H77.9269L81.9596 24.2815L85.9923 13.3065H88.4331L83.2446 26.625H80.47Z" fill="white"/>
<path d="M95.6767 26.8814C94.6322 26.8814 93.6989 26.6985 92.8769 26.3345C92.055 25.9705 91.3407 25.4703 90.7323 24.8337C90.1239 24.199 89.6572 23.4603 89.3324 22.6212C89.0076 21.782 88.8442 20.9053 88.8442 19.989C88.8442 19.0746 89.0058 18.196 89.3324 17.3569C89.6572 16.5178 90.1239 15.7809 90.7323 15.1461C91.3407 14.5114 92.0586 14.0112 92.8895 13.6454C93.7204 13.2814 94.6393 13.0985 95.6498 13.0985C96.6943 13.0985 97.6311 13.2814 98.4621 13.6454C99.293 14.0094 100.016 14.5096 100.632 15.1461C101.247 15.7809 101.719 16.5196 102.044 17.3569C102.369 18.196 102.532 19.0728 102.532 19.989C102.532 20.9035 102.369 21.782 102.044 22.6212C101.719 23.4603 101.253 24.1972 100.644 24.8337C100.036 25.4685 99.3181 25.9687 98.4872 26.3345C97.658 26.6985 96.7194 26.8814 95.6767 26.8814ZM91.4376 20.0177C91.4376 20.9124 91.626 21.7139 92.0029 22.4222C92.3798 23.1304 92.8895 23.6916 93.5302 24.1058C94.1727 24.52 94.887 24.7262 95.6749 24.7262C96.4628 24.7262 97.177 24.5146 97.8195 24.0932C98.462 23.6719 98.9753 23.1017 99.3612 22.3845C99.7471 21.6673 99.9391 20.8784 99.9391 20.0177C99.9391 19.123 99.7471 18.318 99.3612 17.6008C98.9753 16.8836 98.4585 16.3223 97.807 15.9171C97.1555 15.5119 96.4376 15.3093 95.6498 15.3093C94.8798 15.3093 94.1727 15.5209 93.5302 15.9422C92.8877 16.3636 92.378 16.9302 92.0029 17.6384C91.626 18.3466 91.4376 19.1409 91.4376 20.0177Z" fill="white"/>
<path d="M118.613 11.8183H112.936V26.625H109.033V11.8183H103.356V8.40625H118.613V11.8183Z" fill="white"/>
<path d="M123.62 26.8814C122.507 26.8814 121.509 26.6985 120.628 26.3363C119.745 25.9723 118.993 25.4774 118.369 24.8517C117.744 24.2259 117.269 23.4979 116.944 22.6696C116.619 21.8412 116.456 20.9788 116.456 20.0823C116.456 18.8003 116.743 17.6384 117.315 16.5931C117.89 15.5478 118.712 14.705 119.781 14.0649C120.851 13.4248 122.13 13.1039 123.622 13.1039C125.129 13.1039 126.413 13.4248 127.475 14.0667C128.536 14.7086 129.345 15.5495 129.901 16.5877C130.458 17.6258 130.736 18.7536 130.736 19.9711C130.736 20.1737 130.727 20.3853 130.711 20.604C130.693 20.8246 130.677 21.0182 130.659 21.1868H120.513C120.547 21.7874 120.718 22.3128 121.027 22.7628C121.335 23.2129 121.728 23.5499 122.208 23.7759C122.687 24.0018 123.193 24.113 123.722 24.113C124.374 24.113 124.989 23.9641 125.571 23.6647C126.152 23.3653 126.538 22.9421 126.727 22.3952L129.989 23.3455C129.665 24.0305 129.193 24.6383 128.577 25.1672C127.96 25.698 127.236 26.1175 126.407 26.4241C125.576 26.7272 124.648 26.8814 123.62 26.8814ZM120.411 18.7985H126.78C126.728 18.2032 126.553 17.6868 126.255 17.2493C125.955 16.8118 125.578 16.4676 125.124 16.2201C124.67 15.9727 124.151 15.8472 123.57 15.8472C123.022 15.8472 122.516 15.9709 122.055 16.2201C121.592 16.4676 121.215 16.8118 120.924 17.2493C120.632 17.6868 120.461 18.2032 120.411 18.7985Z" fill="white"/>
<path d="M131.454 22.6713C131.454 21.8089 131.702 21.0487 132.199 20.3888C132.696 19.729 133.38 19.2144 134.254 18.8415C135.128 18.4685 136.129 18.2838 137.258 18.2838C137.806 18.2838 138.358 18.3269 138.915 18.4129C139.471 18.499 139.947 18.6353 140.34 18.8235V18.1852C140.34 17.4053 140.108 16.8172 139.647 16.4191C139.184 16.0211 138.473 15.822 137.515 15.822C136.779 15.822 136.077 15.9458 135.408 16.195C134.74 16.4424 134.038 16.8154 133.303 17.3102L132.147 14.8466C133.037 14.2657 133.958 13.8282 134.907 13.5378C135.858 13.2473 136.863 13.1021 137.926 13.1021C139.895 13.1021 141.427 13.5772 142.524 14.5275C143.619 15.4778 144.168 16.8351 144.168 18.6012V22.4096C144.168 22.7789 144.236 23.0443 144.374 23.2039C144.511 23.3634 144.724 23.4513 145.017 23.4692V26.6249C144.692 26.6931 144.392 26.745 144.118 26.7791C143.843 26.8132 143.604 26.8221 143.398 26.8042C142.678 26.8042 142.127 26.6536 141.741 26.356C141.355 26.0565 141.12 25.6495 141.036 25.1367L140.934 24.5217C140.352 25.2909 139.636 25.8772 138.789 26.2789C137.942 26.6805 137.064 26.8813 136.156 26.8813C135.266 26.8813 134.466 26.6984 133.755 26.3362C133.044 25.9723 132.484 25.4702 132.073 24.8283C131.66 24.1846 131.454 23.4674 131.454 22.6713ZM139.724 23.2361C139.913 23.0694 140.062 22.8901 140.173 22.7C140.284 22.5082 140.34 22.3217 140.34 22.1388V20.916C139.981 20.7672 139.577 20.6506 139.132 20.5663C138.687 20.4821 138.258 20.4408 137.847 20.4408C137.059 20.4408 136.4 20.6165 135.869 20.9644C135.338 21.314 135.072 21.7712 135.072 22.3378C135.072 22.6534 135.158 22.9457 135.329 23.211C135.499 23.4764 135.749 23.6934 136.074 23.8601C136.399 24.0268 136.793 24.1093 137.255 24.1093C137.718 24.1093 138.17 24.0268 138.617 23.8601C139.065 23.6951 139.433 23.4872 139.724 23.2361Z" fill="white"/>
<path d="M168.003 26.625H164.202V19.2109C164.202 18.2695 164.031 17.5721 163.689 17.1184C163.346 16.6648 162.883 16.4371 162.301 16.4371C161.702 16.4371 161.12 16.6773 160.555 17.1561C159.99 17.6348 159.588 18.2444 159.347 18.9832V26.6232H155.521V19.2091C155.521 18.2516 155.354 17.5487 155.02 17.1041C154.686 16.6594 154.229 16.4353 153.645 16.4353C153.046 16.4353 152.464 16.6684 151.899 17.1328C151.334 17.5972 150.932 18.2032 150.691 18.9491V26.6232H146.89V13.3083H150.305V15.6858C150.819 14.8413 151.504 14.1994 152.36 13.7619C153.216 13.3226 154.209 13.1039 155.34 13.1039C156.452 13.1039 157.312 13.3657 157.92 13.8892C158.529 14.4128 158.909 15.0457 159.064 15.788C159.595 14.9274 160.288 14.264 161.144 13.7996C162 13.3352 162.958 13.1039 164.021 13.1039C164.843 13.1039 165.519 13.2563 166.05 13.5593C166.582 13.8623 166.993 14.2693 167.283 14.775C167.574 15.2806 167.766 15.8346 167.861 16.4335C167.955 17.0324 168.003 17.6276 168.003 18.2193V26.625Z" fill="white"/>
<path d="M175.528 26.8813C174.382 26.8813 173.273 26.6931 172.203 26.3165C171.133 25.94 170.222 25.3842 169.468 24.649L170.803 22.2105C171.625 22.8255 172.422 23.2935 173.192 23.6091C173.962 23.9264 174.699 24.0842 175.401 24.0842C175.983 24.0842 176.446 23.9874 176.788 23.792C177.131 23.5965 177.302 23.3025 177.302 22.9116C177.302 22.6247 177.207 22.406 177.02 22.2554C176.831 22.103 176.544 21.9649 176.16 21.8376C175.774 21.7121 175.308 21.5633 174.76 21.3947C173.75 21.0756 172.906 20.7582 172.23 20.4462C171.553 20.1342 171.044 19.7505 170.701 19.2951C170.358 18.8397 170.187 18.2426 170.187 17.5003C170.187 16.5895 170.419 15.8113 170.88 15.1622C171.343 14.5131 171.984 14.0075 172.806 13.6453C173.628 13.2831 174.604 13.1021 175.733 13.1021C176.675 13.1021 177.582 13.2527 178.456 13.5503C179.33 13.8497 180.143 14.341 180.896 15.0259L179.382 17.4124C178.646 16.8817 177.973 16.4926 177.366 16.2452C176.758 15.9978 176.155 15.8722 175.555 15.8722C175.247 15.8722 174.952 15.9099 174.669 15.9852C174.387 16.0605 174.159 16.186 173.989 16.3635C173.818 16.5392 173.732 16.7795 173.732 17.0807C173.732 17.3497 173.818 17.5631 173.989 17.7226C174.159 17.8822 174.412 18.0292 174.746 18.1637C175.08 18.2982 175.494 18.4416 175.992 18.5922C177.104 18.8953 178.029 19.2055 178.766 19.5246C179.502 19.8438 180.058 20.2418 180.435 20.7223C180.812 21.2011 181.001 21.834 181.001 22.6247C181.001 23.9515 180.509 24.9933 179.523 25.7481C178.538 26.503 177.207 26.8813 175.528 26.8813Z" fill="white"/>
<path d="M55.7334 40.1854V33.2913H57.6125C58.4452 33.2913 59.0446 33.4311 59.4072 33.7126C59.7715 33.9941 59.9527 34.4549 59.9527 35.0986C59.9527 35.832 59.7033 36.4057 59.2062 36.8217C58.709 37.2377 58.0181 37.4457 57.1351 37.4457H56.7007V40.1854H55.7334ZM56.7025 36.7051H57.0992C57.6806 36.7051 58.1293 36.5725 58.447 36.3053C58.7647 36.0381 58.9226 35.6616 58.9226 35.1739C58.9226 34.7615 58.7988 34.4657 58.5493 34.2882C58.2998 34.1107 57.8852 34.0228 57.3038 34.0228H56.7025V36.7051Z" fill="white"/>
<path d="M63.0222 40.302C62.2971 40.302 61.7192 40.0617 61.2885 39.583C60.856 39.1025 60.6406 38.4606 60.6406 37.6555C60.6406 36.8415 60.8578 36.1978 61.2903 35.7244C61.7246 35.2511 62.3115 35.0144 63.0545 35.0144C63.7975 35.0144 64.3862 35.2511 64.8187 35.7244C65.253 36.1978 65.4684 36.8379 65.4684 37.6465C65.4684 38.4731 65.2512 39.1222 64.8151 39.5937C64.3826 40.0653 63.7831 40.302 63.0222 40.302ZM63.0366 39.6117C64.0093 39.6117 64.4956 38.9572 64.4956 37.6465C64.4956 36.352 64.0147 35.7029 63.0545 35.7029C62.0979 35.7029 61.6187 36.3538 61.6187 37.6555C61.6187 38.959 62.0907 39.6117 63.0366 39.6117Z" fill="white"/>
<path d="M67.4926 40.1854L66.0425 35.1255H66.9434L68.0525 39.0432L69.2514 35.1255H70.1703L71.2202 39.0432L72.4926 35.1255H73.2805L71.6294 40.1854H70.7069L69.6337 36.2676L68.4223 40.1854H67.4926Z" fill="white"/>
<path d="M77.9753 40.0223C77.3597 40.2088 76.8338 40.302 76.3941 40.302C75.6475 40.302 75.0391 40.0546 74.5689 39.5579C74.0987 39.063 73.8618 38.4211 73.8618 37.6322C73.8618 36.8648 74.07 36.2372 74.4846 35.746C74.8992 35.2547 75.4304 35.009 76.0765 35.009C76.6885 35.009 77.1623 35.226 77.4961 35.6617C77.8299 36.0974 77.9968 36.7142 77.9968 37.5157L77.9914 37.8007H74.7969C74.9315 39.0021 75.5201 39.6045 76.5646 39.6045C76.9469 39.6045 77.4171 39.5023 77.9735 39.2979V40.0223H77.9753ZM74.8417 37.1104H77.0743C77.0743 36.1691 76.7226 35.6993 76.0208 35.6993C75.3155 35.6993 74.9225 36.1691 74.8417 37.1104Z" fill="white"/>
<path d="M79.5835 40.1854V35.1256H80.5024V36.0759C80.8667 35.3676 81.3944 35.0144 82.0871 35.0144C82.1804 35.0144 82.2791 35.0216 82.3814 35.0377V35.8948C82.2235 35.8428 82.0835 35.8159 81.9615 35.8159C81.38 35.8159 80.8936 36.1601 80.5024 36.8504V40.1854H79.5835Z" fill="white"/>
<path d="M87.2038 40.0223C86.5882 40.2088 86.0624 40.302 85.6227 40.302C84.8761 40.302 84.2677 40.0546 83.7974 39.5579C83.3272 39.063 83.0903 38.4211 83.0903 37.6322C83.0903 36.8648 83.2985 36.2372 83.7131 35.746C84.1277 35.2547 84.6589 35.009 85.305 35.009C85.917 35.009 86.3908 35.226 86.7246 35.6617C87.0584 36.0974 87.2253 36.7142 87.2253 37.5157L87.2199 37.8007H84.0254C84.16 39.0021 84.7486 39.6045 85.7932 39.6045C86.1754 39.6045 86.6456 39.5023 87.202 39.2979V40.0223H87.2038ZM84.0702 37.1104H86.3029C86.3029 36.1691 85.9511 35.6993 85.2494 35.6993C84.544 35.6993 84.151 36.1691 84.0702 37.1104Z" fill="white"/>
<path d="M92.0621 40.1854V39.2352C91.6888 39.947 91.127 40.302 90.3732 40.302C89.763 40.302 89.2838 40.0797 88.9357 39.6368C88.5857 39.1921 88.4116 38.5861 88.4116 37.8151C88.4116 36.9724 88.609 36.2964 89.0057 35.7836C89.4023 35.2708 89.9246 35.0144 90.5706 35.0144C91.1701 35.0144 91.6672 35.2439 92.0621 35.7029V32.8287H92.9845V40.1837H92.0621V40.1854ZM92.0621 36.3323C91.5865 35.9127 91.136 35.7029 90.7088 35.7029C89.8294 35.7029 89.3897 36.3753 89.3897 37.7201C89.3897 38.9034 89.781 39.4951 90.5653 39.4951C91.075 39.4951 91.5739 39.2172 92.0621 38.6614V36.3323Z" fill="white"/>
<path d="M97.8159 40.1854V33.2913H99.607C100.298 33.2913 100.827 33.4222 101.195 33.6821C101.563 33.9421 101.748 34.3187 101.748 34.8099C101.748 35.6455 101.276 36.2408 100.33 36.594C101.459 36.9382 102.023 37.5622 102.023 38.4623C102.023 39.0217 101.836 39.4484 101.463 39.7425C101.089 40.0383 100.551 40.1854 99.8493 40.1854H97.8159ZM98.7851 36.3179H99.0973C99.6196 36.3179 100.025 36.2067 100.312 35.9826C100.599 35.7584 100.743 35.4447 100.743 35.0377C100.743 34.3599 100.217 34.0228 99.1673 34.0228H98.7851V36.3179ZM98.7851 39.4538H98.9843C99.7022 39.4538 100.167 39.409 100.379 39.3194C100.783 39.149 100.985 38.8317 100.985 38.3691C100.985 37.9585 100.802 37.6178 100.436 37.347C100.07 37.0745 99.6106 36.94 99.0614 36.94H98.7868V39.4538H98.7851Z" fill="white"/>
<path d="M103.631 42.025L104.451 40.1854L102.493 35.1255H103.487L104.937 38.9356L106.486 35.1255H107.353L104.587 42.025H103.631Z" fill="white"/>
<path d="M119.853 30.003C119.573 30.1895 119.478 30.471 119.385 30.7507C119.385 30.9371 119.291 30.8439 119.198 30.8439C117.888 30.3759 116.578 30.3759 115.268 30.8439C113.302 31.5916 111.992 33.087 111.524 35.1435C110.962 37.5749 111.617 39.7247 113.582 41.3133C116.578 43.8378 120.975 42.7154 122.567 39.0702C123.69 36.5457 123.035 33.7414 120.977 31.8713C120.883 31.7781 120.79 31.7781 120.977 31.6848C121.257 31.4984 121.352 31.2168 121.445 30.9371C121.913 31.3119 122.287 31.6848 122.662 32.1528C125.469 35.7998 124.159 41.2218 119.948 43.0919C117.328 44.2144 114.146 43.4667 112.181 41.2218C109.747 38.3243 109.936 33.9297 112.742 31.3119C114.146 30.003 115.831 29.4418 117.701 29.4418C118.45 29.535 119.198 29.63 119.853 30.003ZM116.016 40.2877C116.203 39.9129 116.391 39.6332 116.578 39.2585C116.671 39.1653 116.764 39.1653 116.858 39.1653C117.888 39.1653 118.823 39.1653 119.853 39.1653C120.228 39.1653 120.508 38.9788 120.508 38.7905C120.601 38.3225 120.415 38.1361 119.946 38.0428C119.105 38.0428 118.356 38.0428 117.513 38.0428C117.419 38.0428 117.326 38.0428 117.233 38.0428C117.419 37.7631 117.513 37.4816 117.701 37.2019C118.45 35.893 119.198 34.4909 119.946 33.182C120.04 32.9955 120.133 32.9023 120.415 32.9023C120.697 32.9023 120.977 32.9023 121.35 32.9023C121.163 33.277 120.881 33.65 120.695 34.0247C120.226 34.8656 119.76 35.8016 119.198 36.6425C119.105 36.829 119.105 36.9222 119.385 36.829C119.76 36.829 120.226 36.829 120.601 36.9222C121.257 37.2019 121.632 37.7631 121.632 38.5108C121.632 39.2585 121.257 39.8197 120.601 40.0994C120.415 40.1926 120.226 40.1926 120.04 40.1926C118.73 40.2877 117.419 40.2877 116.016 40.2877ZM119.011 32.8072C118.825 33.182 118.636 33.5549 118.45 33.8364C118.356 33.9297 118.263 33.9297 118.17 33.9297C117.139 33.9297 116.111 33.9297 115.081 33.9297C114.613 33.9297 114.426 34.2094 114.426 34.5841C114.426 34.7706 114.613 34.9589 114.801 35.0521C114.894 35.0521 115.081 35.0521 115.176 35.0521C116.018 35.0521 116.861 35.0521 117.703 35.0521C117.516 35.4268 117.235 35.7998 117.048 36.2678C116.393 37.5767 115.645 38.7923 114.896 40.008C114.803 40.1944 114.709 40.1944 114.521 40.1944C114.241 40.1944 113.866 40.1944 113.491 40.1944C114.239 38.8855 114.988 37.5767 115.736 36.1745C115.456 36.1745 115.268 36.1745 114.988 36.1745C114.708 36.1745 114.426 36.0813 114.239 35.988C113.491 35.7083 113.116 35.0539 113.209 34.2112C113.302 33.3703 113.771 32.9023 114.613 32.7158C114.799 32.7158 114.988 32.7158 115.174 32.7158C116.484 32.8073 117.701 32.8072 119.011 32.8072ZM120.508 31.3119C120.228 31.3119 120.04 31.1254 120.04 30.8439C120.04 30.5624 120.226 30.3759 120.508 30.3759C120.788 30.3759 120.977 30.5624 120.977 30.8439C120.977 31.1254 120.788 31.3119 120.508 31.3119ZM162.452 33.5944C160.383 33.5944 158.891 35.0001 158.891 36.9868C158.891 38.9716 160.381 40.3791 162.452 40.3791C164.523 40.3791 166.013 38.8909 166.013 36.9868C166.013 35.0001 164.521 33.5944 162.452 33.5944ZM162.452 38.6399C161.458 38.6399 160.878 37.9783 160.878 36.985C160.878 35.9916 161.54 35.4125 162.452 35.4125C163.446 35.4125 164.026 35.9916 164.026 37.0674C164.024 37.9783 163.362 38.6399 162.452 38.6399ZM176.776 37.5659C177.438 37.5659 178.1 37.5659 178.762 37.5659H180.169C180.997 37.5659 180.997 37.5659 180.997 36.7393C180.914 34.672 179.672 33.5137 177.684 33.5962C176.027 33.6786 174.62 34.9194 174.455 36.4919C174.29 38.3943 175.2 39.8 176.939 40.2966C178.263 40.6284 179.423 40.2966 180.5 39.3033C180.665 39.1384 180.665 39.0559 180.5 38.9716C180.252 38.8067 179.92 38.5574 179.672 38.3925C179.425 38.145 179.258 38.145 179.01 38.4749C178.265 39.3015 176.941 39.0541 176.526 38.0608C176.445 37.6484 176.445 37.5659 176.776 37.5659ZM176.445 35.9934C176.611 35.4143 177.108 35.0001 177.77 35.0001C178.35 35.0001 178.847 35.3318 179.012 35.9109C179.094 36.1584 179.012 36.2427 178.764 36.2427C178.432 36.2427 178.102 36.2427 177.77 36.2427C177.438 36.2427 177.025 36.2427 176.693 36.2427C176.528 36.2409 176.445 36.2409 176.445 35.9934ZM168.994 34.6702C169.408 34.1735 169.821 33.7593 170.401 33.6769C170.898 33.5944 171.478 33.5944 171.975 33.7593C172.802 34.091 173.052 34.7527 173.217 35.4968C173.299 35.8285 173.299 36.1584 173.299 36.5726C173.299 37.7308 173.299 38.8067 173.299 39.9649C173.299 40.2124 173.217 40.2124 173.052 40.2124C172.637 40.2124 172.14 40.2124 171.727 40.2124C171.48 40.2124 171.395 40.1299 171.395 39.8807C171.395 38.8049 171.395 37.8133 171.395 36.7375C171.395 36.4058 171.395 36.0759 171.23 35.8267C171.065 35.495 170.733 35.33 170.318 35.33C169.904 35.33 169.574 35.495 169.324 35.8267C169.159 36.1584 169.159 36.4883 169.159 36.82C169.159 37.8133 169.159 38.8049 169.159 39.7982C169.159 40.0456 169.076 40.1299 168.827 40.1299C168.33 40.1299 167.915 40.1299 167.42 40.1299C167.255 40.1299 167.172 40.0474 167.172 39.8825C167.172 37.8976 167.172 35.9109 167.172 33.9261C167.172 33.7611 167.255 33.6787 167.42 33.6787C167.917 33.6787 168.332 33.6787 168.827 33.6787C169.075 33.6787 169.075 33.7611 169.075 33.9261C168.994 34.1735 168.994 34.3385 168.994 34.6702ZM154.419 38.6399C155.578 38.6399 156.573 38.6399 157.648 38.6399C157.895 38.6399 157.98 38.7224 157.98 38.9716C157.98 39.3033 157.98 39.6332 157.98 39.9649C157.98 40.1299 157.897 40.2124 157.732 40.2124C155.993 40.2124 154.254 40.2124 152.515 40.2124C152.35 40.2124 152.267 40.1299 152.267 39.9649C152.267 39.4683 152.267 38.9716 152.267 38.3925C152.267 38.2275 152.35 38.0608 152.515 37.9783C153.509 37.1517 154.419 36.3233 155.413 35.4968C155.496 35.4143 155.496 35.4143 155.578 35.3318C154.584 35.3318 153.674 35.3318 152.763 35.3318C152.431 35.3318 152.348 35.2493 152.348 34.9176C152.348 34.5859 152.348 34.256 152.348 33.9243C152.348 33.7593 152.348 33.6769 152.596 33.6769C154.252 33.6769 155.991 33.6769 157.646 33.6769C157.811 33.6769 157.894 33.7593 157.894 33.9243C157.894 34.421 157.894 34.9176 157.894 35.4125C157.894 35.5774 157.811 35.6599 157.646 35.8267C156.652 36.6533 155.742 37.4816 154.747 38.3082C154.751 38.3925 154.586 38.4749 154.419 38.6399ZM147.962 33.9243C146.058 33.9243 144.816 35.2475 144.816 37.1499C144.816 39.0523 146.14 40.3755 148.044 40.3755C149.866 40.3755 151.19 38.9698 151.19 37.0674C151.19 35.2493 149.866 33.8418 147.962 33.9243ZM147.962 39.6332C146.555 39.6332 145.56 38.5574 145.56 37.1517C145.56 35.6635 146.555 34.5877 147.962 34.5877C149.369 34.5877 150.363 35.6635 150.363 37.0692C150.446 38.5574 149.369 39.6332 147.962 39.6332ZM132.56 35.1668C133.304 34.091 134.216 33.7611 135.375 34.0086C136.287 34.256 136.865 34.9194 136.949 36.0759C137.032 37.3991 136.949 38.7224 136.949 40.0474C136.949 40.2124 136.867 40.2124 136.784 40.2124C136.205 40.2949 136.205 40.2949 136.205 39.7157C136.205 38.7224 136.205 37.7308 136.205 36.7375C136.205 36.655 136.205 36.4901 136.205 36.4058C136.205 35.4125 135.79 34.8333 135.128 34.6684C134.3 34.421 133.306 34.8333 132.892 35.6617C132.644 36.0759 132.56 36.4883 132.56 36.985C132.56 37.9783 132.56 38.9698 132.56 39.9631C132.56 40.2949 132.394 40.2948 132.145 40.2948C131.897 40.2948 131.73 40.3773 131.73 39.9631C131.73 38.3082 131.73 36.6533 131.73 35.0001C131.73 34.8351 131.73 34.7527 131.73 34.6684C131.648 34.1717 131.896 34.0068 132.393 34.1717C132.558 34.2542 132.558 34.3367 132.558 34.4192C132.477 34.5034 132.477 34.8351 132.56 35.1668ZM141.171 39.3015C141.585 38.1432 141.998 36.985 142.413 35.9092C142.66 35.33 142.827 34.7509 143.075 34.2542C143.157 34.0892 143.737 33.9225 143.902 34.0892C143.985 34.1717 143.902 34.2542 143.82 34.3367C143.405 35.4125 142.992 36.5708 142.578 37.6466C142.246 38.3907 141.998 39.219 141.666 39.9631C141.583 40.1281 141.501 40.2948 141.334 40.2106C141.086 40.1281 140.837 40.3755 140.672 39.9631C139.927 38.0608 139.182 36.2409 138.435 34.3385C138.353 34.091 138.353 34.0068 138.683 34.0068C139.263 34.0068 139.263 34.0068 139.428 34.5034C140.008 35.9916 140.587 37.4816 141.084 38.9698C141.005 39.0541 141.088 39.1366 141.171 39.3015ZM128.751 37.1517C128.751 36.2409 128.751 35.2493 128.751 34.3385C128.751 33.9243 128.999 34.091 129.166 34.091C129.413 34.091 129.498 34.091 129.498 34.4227C129.498 36.3251 129.498 38.145 129.498 39.9649C129.498 40.3791 129.25 40.2966 129.083 40.2966C128.836 40.2966 128.669 40.2966 128.669 39.9649C128.751 38.9716 128.751 38.0608 128.751 37.1517ZM129.744 31.6095C129.744 31.9412 129.496 32.1887 129.164 32.1887C128.832 32.1887 128.584 31.9412 128.584 31.6095C128.584 31.2778 128.916 31.0304 129.164 31.0304C129.496 31.0304 129.744 31.2778 129.744 31.6095Z" fill="white"/>
</svg>
