<svg width="197" height="54" viewBox="0 0 197 54" fill="none" xmlns="http://www.w3.org/2000/svg">
<path d="M44.9041 8.22421C44.7068 9.28778 43.6618 9.98447 42.5972 9.78737C42.5074 9.77176 42.4214 9.74834 42.3394 9.72102H42.3374C41.8823 9.56685 41.5268 9.2429 41.3119 8.83113V8.82918C41.0951 8.41936 41.0228 7.92368 41.1361 7.42019C41.3647 6.40736 42.4097 5.71067 43.4235 5.939C43.4547 5.94485 43.486 5.95266 43.5153 5.96242H43.5173C44.0876 6.12049 44.5349 6.52445 44.7674 7.0416C44.9237 7.39677 44.9803 7.80464 44.9041 8.22421Z" fill="#3DDC84"/>
<path d="M46.9162 9.26047C46.6212 10.0918 46.0704 10.81 45.3183 11.3154C45.0097 11.5242 44.6757 11.6901 44.3338 11.8091C48.8265 17.1328 50.858 24.4217 49.2055 31.7399C46.4044 44.1612 34.0553 51.9594 21.6242 49.161C9.19109 46.3606 1.38549 34.0231 4.18855 21.6018C6.98966 9.18241 19.3387 1.38419 31.7718 4.1846C34.3796 4.772 36.7822 5.77898 38.9289 7.11967C38.9426 7.05527 38.9543 6.99282 38.968 6.93037C39.2395 5.72629 40.0365 4.75249 41.06 4.19046C38.5265 2.57266 35.6707 1.35882 32.5668 0.658229C18.1843 -2.57932 3.90141 6.44054 0.658846 20.8075C-2.58176 35.1745 6.44663 49.4459 20.8292 52.6854C35.2078 55.923 49.4926 46.9031 52.7352 32.5341C54.6671 23.969 52.2371 15.4389 46.9162 9.26047ZM44.7655 7.03966C44.3592 6.66692 43.9451 6.30589 43.5154 5.96047H43.5134C43.4841 5.95071 43.4509 5.94291 43.4216 5.93705C42.4078 5.70873 41.3628 6.40542 41.1343 7.41825C41.021 7.91979 41.0932 8.41547 41.3101 8.82724V8.82919C41.6617 9.11216 42.0035 9.41074 42.3356 9.71907H42.3375C42.4196 9.7464 42.5055 9.77177 42.5954 9.78738C43.6619 9.98253 44.7069 9.28584 44.9023 8.22422C44.9784 7.80465 44.9238 7.39678 44.7655 7.03966Z" fill="#3DDC84"/>
<path d="M26.6971 9.14929C17.0104 9.14929 9.15796 16.9943 9.15796 26.6719C9.15796 36.3494 17.0104 44.1945 26.6971 44.1945C36.3838 44.1945 44.2363 36.3494 44.2363 26.6719C44.2363 16.9943 36.3838 9.14929 26.6971 9.14929ZM28.2696 37.5847C27.5019 38.2814 26.3162 38.2248 25.6189 37.4578L22.6673 34.2086C23.8042 33.9959 24.4937 33.2426 24.732 32.9811C25.0485 32.6337 25.3649 32.2883 25.6755 31.9448L28.3965 34.9365C29.0939 35.7034 29.0372 36.89 28.2696 37.5847ZM34.3523 19.9763C32.1059 22.4312 29.8615 24.8921 27.6191 27.349C26.5975 28.4731 25.5739 29.5894 24.5543 30.7095C24.2027 31.092 23.853 31.4784 23.5034 31.8609C23.1498 32.2454 22.7552 32.542 22.2122 32.5986C21.634 32.6591 21.1691 32.4737 20.7687 32.1224C20.6827 32.0463 20.5987 31.9644 20.5187 31.8746C19.9815 31.2696 19.4384 30.6666 18.8974 30.0636C18.5809 29.7123 18.2645 29.363 17.948 29.0098C17.3054 28.2955 16.6588 27.5832 16.022 26.8612C15.3794 26.1313 15.3091 25.1165 15.8423 24.3886L15.8482 24.3788C15.9869 24.1915 16.1588 24.0393 16.3482 23.9281C17.0085 23.5319 17.9109 23.5943 18.5673 24.1252C18.6571 24.1915 18.7431 24.2735 18.8231 24.3632C19.3955 25.0033 19.9659 25.6473 20.5362 26.2894C20.9484 26.7558 21.3605 27.2241 21.7688 27.6925C21.8372 27.7745 21.8938 27.8233 21.9485 27.8467H21.9505C22.0364 27.8818 22.1184 27.835 22.2376 27.7042C25.3239 24.3359 28.42 20.9774 31.5102 17.6149C31.9419 17.1446 32.4478 16.8382 33.0982 16.8382C34.1042 16.8343 34.8953 17.6501 34.8934 18.6648C34.9012 19.1781 34.6961 19.5996 34.3523 19.9763Z" fill="#3DDC84"/>
<path d="M61 28.9786V9.14929H63.8226V28.9786H61Z" fill="#10202F"/>
<path d="M80.512 28.9785H77.7734V20.8876C77.7734 19.4513 77.5449 18.3974 77.0878 17.7261C76.6307 17.0548 75.9372 16.7172 75.0055 16.7172C74.3902 16.7172 73.7651 16.8733 73.1322 17.1836C72.4993 17.4959 71.9387 17.9213 71.4543 18.4618C70.9699 19.0024 70.6163 19.621 70.3917 20.3177V28.9766H67.6238V14.4847H70.1397V17.5251C70.5304 16.8616 71.0285 16.284 71.636 15.7961C72.2415 15.3082 72.931 14.9296 73.7046 14.6623C74.4781 14.3949 75.2926 14.2603 76.1502 14.2603C77.0077 14.2603 77.7246 14.4164 78.3028 14.7306C78.8809 15.0448 79.3283 15.4741 79.6447 16.0166C79.9612 16.5611 80.1858 17.1973 80.3147 17.9252C80.4456 18.6531 80.51 19.4239 80.51 20.2358V28.9785H80.512Z" fill="#10202F"/>
<path d="M87.5829 28.9786L81.9631 14.4828H84.815L89.2042 26.428L93.5934 14.4828H96.2499L90.6028 28.9786H87.5829Z" fill="#10202F"/>
<path d="M104.134 29.2576C102.997 29.2576 101.981 29.0585 101.087 28.6624C100.192 28.2662 99.4146 27.7217 98.7524 27.029C98.0902 26.3381 97.5824 25.5341 97.2288 24.6208C96.8753 23.7075 96.6975 22.7532 96.6975 21.756C96.6975 20.7607 96.8733 19.8045 97.2288 18.8912C97.5824 17.9779 98.0902 17.1758 98.7524 16.485C99.4146 15.7941 100.196 15.2497 101.1 14.8516C102.005 14.4554 103.005 14.2563 104.105 14.2563C105.241 14.2563 106.261 14.4554 107.166 14.8516C108.07 15.2477 108.857 15.7922 109.527 16.485C110.197 17.1758 110.711 17.9798 111.064 18.8912C111.418 19.8045 111.596 20.7588 111.596 21.756C111.596 22.7513 111.418 23.7075 111.064 24.6208C110.711 25.5341 110.203 26.3362 109.541 27.029C108.879 27.7198 108.097 28.2643 107.193 28.6624C106.29 29.0585 105.269 29.2576 104.134 29.2576ZM99.5201 21.7872C99.5201 22.761 99.7252 23.6333 100.135 24.4042C100.546 25.175 101.1 25.7858 101.798 26.2366C102.497 26.6874 103.274 26.9119 104.132 26.9119C104.989 26.9119 105.767 26.6816 106.466 26.223C107.166 25.7644 107.724 25.1438 108.144 24.3632C108.564 23.5826 108.773 22.7239 108.773 21.7872C108.773 20.8134 108.564 19.9372 108.144 19.1566C107.724 18.376 107.162 17.7652 106.453 17.3241C105.743 16.8831 104.962 16.6626 104.105 16.6626C103.267 16.6626 102.497 16.8928 101.798 17.3514C101.098 17.81 100.544 18.4267 100.135 19.1976C99.7252 19.9684 99.5201 20.8329 99.5201 21.7872Z" fill="#10202F"/>
<path d="M129.098 12.863H122.919V28.9786H118.671V12.863H112.492V9.14929H129.098V12.863Z" fill="#10202F"/>
<path d="M134.548 29.2576C133.336 29.2576 132.25 29.0585 131.291 28.6643C130.33 28.2682 129.512 27.7296 128.832 27.0485C128.152 26.3674 127.635 25.5751 127.281 24.6735C126.928 23.7719 126.75 22.8332 126.75 21.8575C126.75 20.4621 127.062 19.1976 127.685 18.0598C128.31 16.9221 129.205 16.0049 130.369 15.3082C131.534 14.6115 132.926 14.2622 134.549 14.2622C136.19 14.2622 137.587 14.6115 138.743 15.3102C139.898 16.0088 140.779 16.9241 141.384 18.054C141.99 19.1839 142.293 20.4114 142.293 21.7365C142.293 21.957 142.283 22.1873 142.265 22.4254C142.246 22.6654 142.228 22.8762 142.209 23.0596H131.166C131.203 23.7134 131.389 24.2851 131.725 24.775C132.061 25.2648 132.489 25.6317 133.01 25.8776C133.532 26.1235 134.083 26.2445 134.659 26.2445C135.368 26.2445 136.038 26.0825 136.671 25.7566C137.304 25.4307 137.724 24.9701 137.929 24.3749L141.48 25.4092C141.126 26.1547 140.613 26.8162 139.943 27.3919C139.271 27.9696 138.484 28.4262 137.581 28.7599C136.677 29.0898 135.667 29.2576 134.548 29.2576ZM131.055 20.4602H137.987C137.931 19.8123 137.739 19.2503 137.415 18.7741C137.089 18.2979 136.679 17.9232 136.184 17.6539C135.69 17.3846 135.126 17.248 134.493 17.248C133.897 17.248 133.346 17.3827 132.844 17.6539C132.34 17.9232 131.93 18.2979 131.614 18.7741C131.295 19.2503 131.11 19.8123 131.055 20.4602Z" fill="#10202F"/>
<path d="M143.074 24.6754C143.074 23.7368 143.344 22.9093 143.885 22.1912C144.426 21.473 145.17 20.9129 146.121 20.507C147.072 20.1011 148.162 19.9001 149.391 19.9001C149.987 19.9001 150.589 19.9469 151.194 20.0406C151.8 20.1343 152.317 20.2826 152.745 20.4875V19.7928C152.745 18.9439 152.493 18.3038 151.991 17.8705C151.487 17.4373 150.714 17.2207 149.67 17.2207C148.87 17.2207 148.106 17.3553 147.377 17.6266C146.651 17.8959 145.887 18.3018 145.086 18.8404L143.828 16.1591C144.797 15.5268 145.799 15.0506 146.832 14.7345C147.867 14.4183 148.961 14.2603 150.118 14.2603C152.261 14.2603 153.929 14.7774 155.122 15.8117C156.314 16.846 156.912 18.3233 156.912 20.2455V24.3905C156.912 24.7925 156.986 25.0814 157.136 25.255C157.285 25.4287 157.517 25.5244 157.835 25.5439V28.9785C157.482 29.0527 157.156 29.1093 156.857 29.1463C156.558 29.1834 156.298 29.1932 156.074 29.1737C155.29 29.1737 154.691 29.0097 154.271 28.6858C153.851 28.3599 153.595 27.9169 153.503 27.3588L153.392 26.6894C152.759 27.5266 151.979 28.1647 151.057 28.6019C150.135 29.039 149.18 29.2576 148.192 29.2576C147.223 29.2576 146.352 29.0585 145.578 28.6643C144.805 28.2682 144.195 27.7217 143.748 27.0231C143.299 26.3225 143.074 25.5419 143.074 24.6754ZM152.075 25.2902C152.28 25.1087 152.442 24.9135 152.563 24.7067C152.684 24.4979 152.745 24.2949 152.745 24.0958V22.7649C152.354 22.6029 151.915 22.4761 151.43 22.3844C150.946 22.2927 150.479 22.2478 150.032 22.2478C149.174 22.2478 148.457 22.439 147.879 22.8176C147.301 23.1982 147.012 23.6958 147.012 24.3125C147.012 24.6559 147.106 24.974 147.291 25.2628C147.477 25.5517 147.748 25.7878 148.102 25.9693C148.455 26.1508 148.885 26.2406 149.387 26.2406C149.891 26.2406 150.383 26.1508 150.87 25.9693C151.358 25.7898 151.759 25.5634 152.075 25.2902Z" fill="#10202F"/>
<path d="M182.854 28.9785H178.717V20.909C178.717 19.8845 178.531 19.1254 178.158 18.6316C177.785 18.1379 177.281 17.8901 176.648 17.8901C175.996 17.8901 175.363 18.1516 174.747 18.6726C174.132 19.1937 173.694 19.8572 173.433 20.6612V28.9766H169.268V20.9071C169.268 19.865 169.087 19.1 168.723 18.616C168.36 18.132 167.862 17.8881 167.227 17.8881C166.574 17.8881 165.942 18.1418 165.326 18.6472C164.711 19.1527 164.273 19.8123 164.012 20.6241V28.9766H159.875V14.4847H163.592V17.0724C164.15 16.1532 164.897 15.4546 165.828 14.9784C166.76 14.5003 167.84 14.2622 169.071 14.2622C170.282 14.2622 171.218 14.5471 171.88 15.117C172.542 15.6868 172.956 16.3757 173.124 17.1836C173.702 16.2469 174.456 15.5248 175.388 15.0194C176.32 14.514 177.363 14.2622 178.519 14.2622C179.414 14.2622 180.15 14.4281 180.728 14.7579C181.307 15.0877 181.754 15.5307 182.07 16.081C182.387 16.6313 182.596 17.2344 182.699 17.8862C182.801 18.538 182.854 19.1859 182.854 19.8299V28.9785Z" fill="#10202F"/>
<path d="M191.044 29.2576C189.796 29.2576 188.589 29.0527 187.425 28.6429C186.261 28.233 185.268 27.6281 184.448 26.828L185.901 24.1739C186.796 24.8433 187.663 25.3526 188.501 25.6961C189.339 26.0415 190.142 26.2132 190.906 26.2132C191.539 26.2132 192.043 26.1079 192.416 25.8951C192.789 25.6824 192.974 25.3624 192.974 24.9369C192.974 24.6247 192.871 24.3866 192.668 24.2227C192.463 24.0568 192.15 23.9066 191.732 23.768C191.312 23.6314 190.804 23.4694 190.208 23.286C189.109 22.9386 188.191 22.5932 187.454 22.2536C186.718 21.9141 186.163 21.4964 185.79 21.0008C185.417 20.5051 185.231 19.8552 185.231 19.0473C185.231 18.0559 185.483 17.209 185.985 16.5025C186.489 15.7961 187.187 15.2458 188.081 14.8516C188.976 14.4574 190.038 14.2603 191.267 14.2603C192.293 14.2603 193.279 14.4242 194.23 14.7481C195.182 15.074 196.067 15.6087 196.887 16.3542L195.238 18.9517C194.437 18.374 193.705 17.9506 193.045 17.6812C192.383 17.4119 191.726 17.2753 191.074 17.2753C190.738 17.2753 190.417 17.3163 190.109 17.3983C189.802 17.4802 189.554 17.6168 189.368 17.81C189.183 18.0013 189.089 18.2628 189.089 18.5906C189.089 18.8834 189.183 19.1156 189.368 19.2893C189.554 19.463 189.829 19.623 190.193 19.7694C190.556 19.9157 191.007 20.0718 191.548 20.2358C192.76 20.5656 193.765 20.9032 194.568 21.2506C195.369 21.5979 195.975 22.0312 196.385 22.5542C196.795 23.0752 197 23.7641 197 24.6247C197 26.0688 196.465 27.2026 195.393 28.0242C194.32 28.8458 192.871 29.2576 191.044 29.2576Z" fill="#10202F"/>
<path d="M60.6599 43.7378V36.2343H62.7051C63.6114 36.2343 64.2638 36.3865 64.6584 36.6929C65.055 36.9992 65.2522 37.5008 65.2522 38.2014C65.2522 38.9995 64.9807 39.624 64.4396 40.0768C63.8986 40.5295 63.1465 40.7559 62.1855 40.7559H61.7128V43.7378H60.6599ZM61.7147 39.9499H62.1464C62.7793 39.9499 63.2676 39.8055 63.6134 39.5147C63.9591 39.224 64.131 38.8141 64.131 38.2833C64.131 37.8345 63.9962 37.5125 63.7247 37.3193C63.4532 37.1261 63.002 37.0305 62.3691 37.0305H61.7147V39.9499Z" fill="#606060"/>
<path d="M68.5928 43.8646C67.8037 43.8646 67.1747 43.6031 66.7059 43.0821C66.2351 42.5591 66.0007 41.8604 66.0007 40.9842C66.0007 40.0982 66.2371 39.3976 66.7078 38.8824C67.1806 38.3672 67.8193 38.1096 68.628 38.1096C69.4367 38.1096 70.0774 38.3672 70.5481 38.8824C71.0208 39.3976 71.2552 40.0943 71.2552 40.9744C71.2552 41.8741 71.0189 42.5805 70.5442 43.0938C70.0735 43.607 69.421 43.8646 68.5928 43.8646ZM68.6085 43.1133C69.6672 43.1133 70.1965 42.401 70.1965 40.9744C70.1965 39.5654 69.673 38.859 68.628 38.859C67.5869 38.859 67.0653 39.5674 67.0653 40.9842C67.0653 42.4029 67.579 43.1133 68.6085 43.1133Z" fill="#606060"/>
<path d="M73.4584 43.7377L71.8801 38.2306H72.8607L74.0679 42.4946L75.3727 38.2306H76.3728L77.5155 42.4946L78.9005 38.2306H79.758L77.9609 43.7377H76.9569L75.7888 39.4737L74.4703 43.7377H73.4584Z" fill="#606060"/>
<path d="M84.868 43.5602C84.198 43.7631 83.6256 43.8646 83.1471 43.8646C82.3345 43.8646 81.6723 43.5953 81.1605 43.0547C80.6487 42.5161 80.3909 41.8175 80.3909 40.9588C80.3909 40.1236 80.6175 39.4405 81.0687 38.9058C81.5199 38.3711 82.0981 38.1038 82.8013 38.1038C83.4674 38.1038 83.9831 38.3399 84.3464 38.8141C84.7097 39.2883 84.8914 39.9596 84.8914 40.832L84.8855 41.1423H81.4086C81.5551 42.4498 82.1958 43.1055 83.3326 43.1055C83.7487 43.1055 84.2605 42.9942 84.866 42.7718V43.5602H84.868ZM81.4574 40.3909H83.8874C83.8874 39.3664 83.5045 38.8551 82.7408 38.8551C81.9731 38.8551 81.5453 39.3664 81.4574 40.3909Z" fill="#606060"/>
<path d="M86.6182 43.7378V38.2306H87.6183V39.2649C88.0148 38.4941 88.5891 38.1096 89.3431 38.1096C89.4447 38.1096 89.5521 38.1174 89.6634 38.135V39.0678C89.4915 39.0112 89.3392 38.9819 89.2064 38.9819C88.5735 38.9819 88.0441 39.3566 87.6183 40.108V43.7378H86.6182Z" fill="#606060"/>
<path d="M94.9121 43.5602C94.2421 43.7631 93.6698 43.8646 93.1912 43.8646C92.3786 43.8646 91.7165 43.5953 91.2047 43.0547C90.6929 42.5161 90.4351 41.8175 90.4351 40.9588C90.4351 40.1236 90.6616 39.4405 91.1129 38.9058C91.5641 38.3711 92.1423 38.1038 92.8455 38.1038C93.5116 38.1038 94.0273 38.3399 94.3906 38.8141C94.7539 39.2883 94.9356 39.9596 94.9356 40.832L94.9297 41.1423H91.4528C91.5993 42.4498 92.24 43.1055 93.3768 43.1055C93.7929 43.1055 94.3046 42.9942 94.9102 42.7718V43.5602H94.9121ZM91.5016 40.3909H93.9316C93.9316 39.3664 93.5487 38.8551 92.7849 38.8551C92.0173 38.8551 91.5895 39.3664 91.5016 40.3909Z" fill="#606060"/>
<path d="M100.2 43.7377V42.7034C99.7934 43.4782 99.182 43.8646 98.3616 43.8646C97.6974 43.8646 97.1759 43.6226 96.7969 43.1406C96.416 42.6566 96.2266 41.997 96.2266 41.1579C96.2266 40.2406 96.4414 39.5049 96.8731 38.9468C97.3048 38.3887 97.8732 38.1096 98.5764 38.1096C99.2289 38.1096 99.7699 38.3594 100.2 38.859V35.7307H101.204V43.7358H100.2V43.7377ZM100.2 39.544C99.682 39.0873 99.1918 38.859 98.7269 38.859C97.7697 38.859 97.2911 39.5908 97.2911 41.0544C97.2911 42.3424 97.717 42.9864 98.5706 42.9864C99.1253 42.9864 99.6684 42.6839 100.2 42.079V39.544Z" fill="#606060"/>
<path d="M106.462 43.7378V36.2343H108.412C109.164 36.2343 109.74 36.3767 110.14 36.6597C110.541 36.9427 110.742 37.3525 110.742 37.8872C110.742 38.7966 110.228 39.4445 109.199 39.8289C110.427 40.2036 111.041 40.8827 111.041 41.8624C111.041 42.4713 110.838 42.9357 110.431 43.2558C110.025 43.5778 109.439 43.7378 108.675 43.7378H106.462ZM107.517 39.5284H107.857C108.425 39.5284 108.867 39.4074 109.179 39.1635C109.492 38.9195 109.648 38.578 109.648 38.135C109.648 37.3974 109.076 37.0305 107.933 37.0305H107.517V39.5284ZM107.517 42.9416H107.734C108.515 42.9416 109.021 42.8928 109.252 42.7952C109.691 42.6098 109.912 42.2644 109.912 41.7609C109.912 41.314 109.713 40.9432 109.314 40.6486C108.916 40.3519 108.416 40.2056 107.818 40.2056H107.519V42.9416H107.517Z" fill="#606060"/>
<path d="M112.791 45.74L113.684 43.7377L111.553 38.2306H112.635L114.213 42.3775L115.899 38.2306H116.842L113.832 45.74H112.791Z" fill="#606060"/>
<path d="M130.447 32.6551C130.143 32.8581 130.039 33.1645 129.938 33.4689C129.938 33.6719 129.836 33.5704 129.734 33.5704C128.309 33.061 126.883 33.061 125.457 33.5704C123.318 34.3842 121.892 36.0117 121.382 38.2501C120.771 40.8963 121.484 43.2362 123.622 44.9652C126.883 47.713 131.668 46.4913 133.401 42.5239C134.624 39.7762 133.911 36.724 131.67 34.6886C131.569 34.5871 131.467 34.5871 131.67 34.4856C131.975 34.2827 132.078 33.9763 132.18 33.6719C132.69 34.0797 133.096 34.4856 133.504 34.995C136.559 38.9644 135.134 44.8657 130.551 46.9011C127.699 48.1228 124.236 47.309 122.097 44.8657C119.448 41.7121 119.653 36.9289 122.708 34.0797C124.236 32.6551 126.07 32.0443 128.105 32.0443C128.92 32.1458 129.734 32.2492 130.447 32.6551ZM126.271 43.849C126.474 43.4411 126.679 43.1367 126.883 42.7288C126.984 42.6273 127.086 42.6273 127.187 42.6273C128.309 42.6273 129.326 42.6273 130.447 42.6273C130.856 42.6273 131.16 42.4244 131.16 42.2195C131.262 41.7101 131.059 41.5072 130.549 41.4057C129.633 41.4057 128.818 41.4057 127.9 41.4057C127.799 41.4057 127.697 41.4057 127.596 41.4057C127.799 41.1013 127.9 40.7949 128.105 40.4904C128.92 39.0658 129.734 37.5398 130.549 36.1152C130.651 35.9122 130.752 35.8107 131.059 35.8107C131.366 35.8107 131.67 35.8107 132.077 35.8107C131.873 36.2186 131.567 36.6245 131.364 37.0324C130.854 37.9476 130.346 38.9663 129.734 39.8816C129.633 40.0845 129.633 40.186 129.938 40.0845C130.346 40.0845 130.854 40.0845 131.262 40.186C131.975 40.4904 132.383 41.1013 132.383 41.915C132.383 42.7288 131.975 43.3396 131.262 43.6441C131.059 43.7455 130.854 43.7455 130.651 43.7455C129.225 43.849 127.799 43.849 126.271 43.849ZM129.531 35.7073C129.328 36.1152 129.123 36.5211 128.92 36.8275C128.818 36.9289 128.717 36.9289 128.615 36.9289C127.494 36.9289 126.375 36.9289 125.253 36.9289C124.744 36.9289 124.541 37.2334 124.541 37.6412C124.541 37.8442 124.744 38.0491 124.949 38.1506C125.05 38.1506 125.253 38.1506 125.357 38.1506C126.273 38.1506 127.191 38.1506 128.107 38.1506C127.904 38.5584 127.598 38.9644 127.394 39.4737C126.681 40.8983 125.867 42.2214 125.052 43.5445C124.951 43.7475 124.849 43.7475 124.644 43.7475C124.339 43.7475 123.931 43.7475 123.523 43.7475C124.337 42.3229 125.152 40.8983 125.966 39.3722C125.662 39.3722 125.457 39.3722 125.152 39.3722C124.847 39.3722 124.541 39.2707 124.337 39.1693C123.523 38.8648 123.115 38.1525 123.216 37.2353C123.318 36.3201 123.828 35.8107 124.744 35.6078C124.947 35.6078 125.152 35.6078 125.355 35.6078C126.781 35.7073 128.105 35.7073 129.531 35.7073ZM131.16 34.0797C130.856 34.0797 130.651 33.8768 130.651 33.5704C130.651 33.264 130.854 33.061 131.16 33.061C131.465 33.061 131.67 33.264 131.67 33.5704C131.67 33.8768 131.465 34.0797 131.16 34.0797ZM176.812 36.564C174.56 36.564 172.937 38.094 172.937 40.2563C172.937 42.4166 174.558 43.9485 176.812 43.9485C179.066 43.9485 180.688 42.3288 180.688 40.2563C180.688 38.094 179.064 36.564 176.812 36.564ZM176.812 42.0555C175.73 42.0555 175.099 41.3354 175.099 40.2543C175.099 39.1732 175.82 38.5428 176.812 38.5428C177.894 38.5428 178.525 39.1732 178.525 40.3441C178.523 41.3354 177.803 42.0555 176.812 42.0555ZM192.402 40.8866C193.123 40.8866 193.843 40.8866 194.564 40.8866H196.096C196.996 40.8866 196.996 40.8866 196.996 39.9869C196.906 37.7369 195.555 36.4762 193.39 36.566C191.587 36.6557 190.056 38.0062 189.876 39.7176C189.697 41.7882 190.687 43.3182 192.58 43.8587C194.021 44.2198 195.283 43.8587 196.455 42.7776C196.635 42.5981 196.635 42.5083 196.455 42.4166C196.186 42.237 195.824 41.9658 195.555 41.7862C195.285 41.5169 195.103 41.5169 194.834 41.876C194.023 42.7756 192.582 42.5063 192.13 41.4252C192.042 40.9764 192.042 40.8866 192.402 40.8866ZM192.042 39.1751C192.222 38.5448 192.763 38.094 193.484 38.094C194.115 38.094 194.656 38.455 194.836 39.0853C194.926 39.3547 194.836 39.4464 194.566 39.4464C194.205 39.4464 193.845 39.4464 193.484 39.4464C193.123 39.4464 192.673 39.4464 192.312 39.4464C192.132 39.4444 192.042 39.4444 192.042 39.1751ZM183.932 37.7349C184.383 37.1943 184.833 36.7435 185.464 36.6538C186.005 36.564 186.636 36.564 187.177 36.7435C188.077 37.1046 188.349 37.8247 188.528 38.6346C188.618 38.9956 188.618 39.3547 188.618 39.8055C188.618 41.0661 188.618 42.237 188.618 43.4977C188.618 43.767 188.528 43.767 188.349 43.767C187.897 43.767 187.356 43.767 186.907 43.767C186.638 43.767 186.546 43.6772 186.546 43.406C186.546 42.2351 186.546 41.1559 186.546 39.985C186.546 39.624 186.546 39.2649 186.366 38.9936C186.186 38.6326 185.825 38.4531 185.374 38.4531C184.923 38.4531 184.563 38.6326 184.292 38.9936C184.112 39.3547 184.112 39.7137 184.112 40.0748C184.112 41.1559 184.112 42.2351 184.112 43.3162C184.112 43.5855 184.022 43.6772 183.751 43.6772C183.209 43.6772 182.758 43.6772 182.219 43.6772C182.039 43.6772 181.95 43.5875 181.95 43.4079C181.95 41.2476 181.95 39.0853 181.95 36.925C181.95 36.7455 182.039 36.6557 182.219 36.6557C182.76 36.6557 183.211 36.6557 183.751 36.6557C184.02 36.6557 184.02 36.7455 184.02 36.925C183.932 37.1943 183.932 37.3739 183.932 37.7349ZM168.069 42.0555C169.331 42.0555 170.413 42.0555 171.583 42.0555C171.853 42.0555 171.944 42.1453 171.944 42.4166C171.944 42.7776 171.944 43.1367 171.944 43.4977C171.944 43.6772 171.855 43.767 171.675 43.767C169.782 43.767 167.889 43.767 165.996 43.767C165.817 43.767 165.727 43.6772 165.727 43.4977C165.727 42.9571 165.727 42.4166 165.727 41.7862C165.727 41.6067 165.817 41.4252 165.996 41.3354C167.079 40.4358 168.069 39.5342 169.151 38.6346C169.241 38.5448 169.241 38.5448 169.331 38.455C168.249 38.455 167.258 38.455 166.266 38.455C165.905 38.455 165.815 38.3652 165.815 38.0042C165.815 37.6432 165.815 37.2841 165.815 36.9231C165.815 36.7435 165.815 36.6538 166.084 36.6538C167.887 36.6538 169.78 36.6538 171.581 36.6538C171.761 36.6538 171.851 36.7435 171.851 36.9231C171.851 37.4636 171.851 38.0042 171.851 38.5428C171.851 38.7224 171.761 38.8121 171.581 38.9936C170.499 39.8933 169.509 40.7949 168.426 41.6945C168.43 41.7862 168.251 41.876 168.069 42.0555ZM161.041 36.9231C158.968 36.9231 157.617 38.3633 157.617 40.4338C157.617 42.5044 159.058 43.9446 161.131 43.9446C163.113 43.9446 164.555 42.4146 164.555 40.3441C164.555 38.3652 163.113 36.8333 161.041 36.9231ZM161.041 43.1367C159.509 43.1367 158.427 41.9658 158.427 40.4358C158.427 38.816 159.509 37.6451 161.041 37.6451C162.572 37.6451 163.654 38.816 163.654 40.346C163.744 41.9658 162.572 43.1367 161.041 43.1367ZM144.277 38.2755C145.088 37.1046 146.08 36.7455 147.342 37.0148C148.334 37.2841 148.963 38.0062 149.055 39.2649C149.145 40.7051 149.055 42.1453 149.055 43.5875C149.055 43.767 148.965 43.767 148.875 43.767C148.244 43.8568 148.244 43.8568 148.244 43.2264C148.244 42.1453 148.244 41.0661 148.244 39.985C148.244 39.8952 148.244 39.7157 148.244 39.624C148.244 38.5428 147.793 37.9125 147.072 37.733C146.172 37.4636 145.09 37.9125 144.639 38.8141C144.369 39.2649 144.277 39.7137 144.277 40.2543C144.277 41.3354 144.277 42.4146 144.277 43.4958C144.277 43.8568 144.097 43.8568 143.826 43.8568C143.556 43.8568 143.375 43.9466 143.375 43.4958C143.375 41.6945 143.375 39.8933 143.375 38.094C143.375 37.9144 143.375 37.8247 143.375 37.733C143.285 37.1924 143.554 37.0128 144.096 37.1924C144.275 37.2822 144.275 37.3719 144.275 37.4617C144.187 37.5534 144.187 37.9144 144.277 38.2755ZM153.649 42.7756C154.101 41.515 154.55 40.2543 155.001 39.0834C155.271 38.4531 155.452 37.8227 155.722 37.2822C155.812 37.1026 156.443 36.9211 156.622 37.1026C156.712 37.1924 156.622 37.2822 156.532 37.3719C156.081 38.5428 155.632 39.8035 155.181 40.9744C154.819 41.7843 154.55 42.6859 154.188 43.4958C154.099 43.6753 154.009 43.8568 153.827 43.7651C153.558 43.6753 153.286 43.9446 153.106 43.4958C152.296 41.4252 151.485 39.4444 150.672 37.3739C150.583 37.1046 150.583 37.0128 150.942 37.0128C151.573 37.0128 151.573 37.0128 151.753 37.5534C152.384 39.1732 153.015 40.7949 153.556 42.4146C153.47 42.5063 153.56 42.5961 153.649 42.7756ZM140.132 40.4358C140.132 39.4444 140.132 38.3652 140.132 37.3739C140.132 36.9231 140.402 37.1046 140.583 37.1046C140.853 37.1046 140.945 37.1046 140.945 37.4656C140.945 39.5361 140.945 41.5169 140.945 43.4977C140.945 43.9485 140.675 43.8587 140.494 43.8587C140.224 43.8587 140.042 43.8587 140.042 43.4977C140.132 42.4166 140.132 41.4252 140.132 40.4358ZM141.212 34.4037C141.212 34.7647 140.943 35.034 140.581 35.034C140.22 35.034 139.951 34.7647 139.951 34.4037C139.951 34.0427 140.312 33.7733 140.581 33.7733C140.943 33.7733 141.212 34.0427 141.212 34.4037Z" fill="#606060"/>
</svg>
