<svg width="197" height="55" viewBox="0 0 197 55" fill="none" xmlns="http://www.w3.org/2000/svg">
<path d="M61 36.0622V16.2141H63.8226V36.0622H61Z" fill="#10202F"/>
<path d="M80.5122 36.0622H77.7736V27.9636C77.7736 26.5259 77.5451 25.4711 77.088 24.7991C76.6309 24.1272 75.9375 23.7893 75.0057 23.7893C74.3904 23.7893 73.7654 23.9455 73.1325 24.2561C72.4996 24.5686 71.939 24.9945 71.4545 25.5356C70.9701 26.0766 70.6166 26.6958 70.3919 27.3932V36.0602H67.624V21.5507H70.1399V24.594C70.5306 23.9299 71.0287 23.3517 71.6362 22.8634C72.2418 22.375 72.9313 21.9961 73.7048 21.7285C74.4783 21.4609 75.2929 21.3261 76.1504 21.3261C77.0079 21.3261 77.7248 21.4823 78.303 21.7968C78.8812 22.1113 79.3285 22.5411 79.645 23.0841C79.9614 23.6291 80.186 24.2659 80.315 24.9945C80.4458 25.7231 80.5103 26.4947 80.5103 27.3072V36.0622H80.5122Z" fill="#10202F"/>
<path d="M87.5832 36.0622L81.9634 21.5527H84.8153L89.2045 33.5091L93.5936 21.5527H96.2502L90.6031 36.0622H87.5832Z" fill="#10202F"/>
<path d="M104.134 36.3415C102.997 36.3415 101.982 36.1423 101.087 35.7457C100.192 35.3492 99.4149 34.8042 98.7527 34.1108C98.0905 33.4193 97.5826 32.6145 97.2291 31.7003C96.8755 30.7862 96.6978 29.831 96.6978 28.8328C96.6978 27.8366 96.8736 26.8795 97.2291 25.9653C97.5826 25.0511 98.0905 24.2483 98.7527 23.5568C99.4149 22.8653 100.196 22.3203 101.101 21.9219C102.005 21.5253 103.005 21.3261 104.105 21.3261C105.242 21.3261 106.261 21.5253 107.166 21.9219C108.07 22.3184 108.857 22.8634 109.527 23.5568C110.197 24.2483 110.711 25.0531 111.065 25.9653C111.418 26.8795 111.596 27.8347 111.596 28.8328C111.596 29.829 111.418 30.7862 111.065 31.7003C110.711 32.6145 110.203 33.4173 109.541 34.1108C108.879 34.8023 108.098 35.3472 107.193 35.7457C106.291 36.1423 105.269 36.3415 104.134 36.3415ZM99.5204 28.8641C99.5204 29.8388 99.7255 30.7119 100.136 31.4835C100.546 32.2551 101.101 32.8665 101.798 33.3177C102.497 33.7689 103.275 33.9936 104.132 33.9936C104.99 33.9936 105.767 33.7631 106.466 33.304C107.166 32.845 107.724 32.2238 108.144 31.4425C108.564 30.6612 108.773 29.8017 108.773 28.8641C108.773 27.8893 108.564 27.0123 108.144 26.2309C107.724 25.4496 107.162 24.8382 106.453 24.3968C105.744 23.9553 104.962 23.7346 104.105 23.7346C103.267 23.7346 102.497 23.9651 101.798 24.4241C101.099 24.8831 100.544 25.5004 100.136 26.272C99.7255 27.0435 99.5204 27.9069 99.5204 28.8641Z" fill="#10202F"/>
<path d="M129.098 19.9314H122.919V36.0622H118.671V19.9314H112.492V16.2141H129.098V19.9314Z" fill="#10202F"/>
<path d="M134.548 36.3415C133.337 36.3415 132.251 36.1423 131.292 35.7477C130.33 35.3512 129.512 34.812 128.832 34.1303C128.153 33.4486 127.635 32.6555 127.281 31.7531C126.928 30.8506 126.75 29.9111 126.75 28.9344C126.75 27.5377 127.063 26.272 127.686 25.1332C128.311 23.9944 129.205 23.0763 130.37 22.3789C131.534 21.6816 132.926 21.3319 134.55 21.3319C136.191 21.3319 137.587 21.6816 138.744 22.3809C139.898 23.0802 140.779 23.9963 141.385 25.1273C141.99 26.2583 142.293 27.487 142.293 28.8133C142.293 29.034 142.283 29.2645 142.265 29.5028C142.246 29.7431 142.228 29.954 142.209 30.1377H131.167C131.204 30.792 131.389 31.3644 131.725 31.8546C132.061 32.3449 132.489 32.7122 133.01 32.9583C133.532 33.2044 134.083 33.3255 134.659 33.3255C135.368 33.3255 136.038 33.1634 136.671 32.8372C137.304 32.511 137.724 32.05 137.929 31.4542L141.48 32.4895C141.127 33.2357 140.613 33.8979 139.943 34.4741C139.271 35.0523 138.484 35.5094 137.581 35.8434C136.677 36.1735 135.667 36.3415 134.548 36.3415ZM131.055 27.5358H137.988C137.931 26.8873 137.74 26.3247 137.415 25.8481C137.089 25.3715 136.679 24.9964 136.185 24.7269C135.69 24.4573 135.126 24.3206 134.493 24.3206C133.897 24.3206 133.346 24.4554 132.844 24.7269C132.34 24.9964 131.93 25.3715 131.614 25.8481C131.295 26.3247 131.11 26.8873 131.055 27.5358Z" fill="#10202F"/>
<path d="M143.074 31.755C143.074 30.8155 143.344 29.9872 143.885 29.2684C144.426 28.5496 145.17 27.989 146.121 27.5827C147.073 27.1764 148.163 26.9752 149.391 26.9752C149.987 26.9752 150.589 27.0221 151.194 27.1158C151.8 27.2096 152.317 27.358 152.745 27.5631V26.8677C152.745 26.018 152.493 25.3773 151.991 24.9437C151.487 24.51 150.714 24.2932 149.671 24.2932C148.87 24.2932 148.106 24.428 147.377 24.6995C146.651 24.9691 145.887 25.3754 145.086 25.9145L143.828 23.2306C144.797 22.5977 145.799 22.1211 146.832 21.8046C147.868 21.4882 148.962 21.33 150.118 21.33C152.261 21.33 153.929 21.8476 155.122 22.8829C156.314 23.9182 156.912 25.3969 156.912 27.3209V31.4698C156.912 31.8722 156.986 32.1613 157.136 32.3352C157.285 32.509 157.517 32.6047 157.836 32.6243V36.0622C157.482 36.1364 157.156 36.193 156.857 36.2302C156.558 36.2673 156.298 36.277 156.074 36.2575C155.29 36.2575 154.691 36.0934 154.271 35.7692C153.851 35.443 153.595 34.9995 153.503 34.4409L153.392 33.7709C152.759 34.6089 151.98 35.2476 151.058 35.6852C150.136 36.1227 149.18 36.3415 148.192 36.3415C147.223 36.3415 146.352 36.1423 145.578 35.7477C144.805 35.3511 144.195 34.8042 143.748 34.1049C143.299 33.4037 143.074 32.6204 143.074 31.755ZM152.075 32.3703C152.28 32.1887 152.442 31.9933 152.564 31.7863C152.685 31.5773 152.745 31.3741 152.745 31.1749V29.8427C152.355 29.6806 151.915 29.5536 151.431 29.4618C150.946 29.37 150.479 29.3251 150.032 29.3251C149.175 29.3251 148.458 29.5165 147.879 29.8954C147.301 30.2763 147.012 30.7744 147.012 31.3917C147.012 31.7355 147.106 32.0539 147.291 32.343C147.477 32.6321 147.749 32.8684 148.102 33.0501C148.456 33.2318 148.885 33.3216 149.387 33.3216C149.891 33.3216 150.384 33.2318 150.87 33.0501C151.358 32.8684 151.759 32.6418 152.075 32.3703Z" fill="#10202F"/>
<path d="M182.854 36.0622H178.717V27.9851C178.717 26.9595 178.531 26.1997 178.158 25.7055C177.785 25.2113 177.281 24.9632 176.648 24.9632C175.996 24.9632 175.363 25.225 174.747 25.7465C174.132 26.2681 173.694 26.9322 173.433 27.737V36.0602H169.268V27.9831C169.268 26.94 169.087 26.1743 168.723 25.6899C168.36 25.2054 167.862 24.9613 167.227 24.9613C166.575 24.9613 165.942 25.2152 165.326 25.7211C164.711 26.227 164.273 26.8873 164.012 27.6999V36.0602H159.875V21.5507H163.592V24.1409C164.15 23.2208 164.897 22.5215 165.828 22.0449C166.76 21.5663 167.84 21.328 169.071 21.328C170.282 21.328 171.218 21.6132 171.88 22.1836C172.542 22.754 172.956 23.4435 173.124 24.2522C173.702 23.3146 174.456 22.5919 175.388 22.0859C176.32 21.58 177.363 21.328 178.519 21.328C179.414 21.328 180.15 21.4941 180.728 21.8242C181.307 22.1543 181.754 22.5977 182.07 23.1486C182.387 23.6994 182.596 24.303 182.699 24.9554C182.801 25.6078 182.854 26.2563 182.854 26.9009V36.0622Z" fill="#10202F"/>
<path d="M191.045 36.3415C189.797 36.3415 188.589 36.1364 187.425 35.7262C186.261 35.316 185.269 34.7104 184.448 33.9096L185.902 31.253C186.796 31.923 187.663 32.4328 188.501 32.7766C189.339 33.1224 190.142 33.2943 190.906 33.2943C191.539 33.2943 192.043 33.1888 192.416 32.9759C192.789 32.763 192.975 32.4426 192.975 32.0168C192.975 31.7042 192.871 31.4659 192.668 31.3019C192.463 31.1358 192.15 30.9854 191.732 30.8467C191.312 30.71 190.804 30.5479 190.209 30.3642C189.109 30.0165 188.191 29.6708 187.454 29.3309C186.718 28.991 186.163 28.573 185.79 28.0769C185.417 27.5807 185.232 26.9302 185.232 26.1216C185.232 25.1293 185.484 24.2815 185.986 23.5744C186.489 22.8673 187.187 22.3164 188.081 21.9219C188.976 21.5273 190.039 21.33 191.267 21.33C192.293 21.33 193.279 21.4941 194.231 21.8183C195.182 22.1445 196.067 22.6798 196.887 23.4259L195.239 26.0258C194.438 25.4477 193.705 25.0238 193.045 24.7542C192.383 24.4847 191.726 24.3479 191.074 24.3479C190.738 24.3479 190.418 24.3889 190.109 24.471C189.802 24.553 189.554 24.6898 189.369 24.8831C189.183 25.0746 189.089 25.3363 189.089 25.6645C189.089 25.9575 189.183 26.1899 189.369 26.3638C189.554 26.5376 189.83 26.6978 190.193 26.8443C190.556 26.9908 191.008 27.1471 191.549 27.3112C192.76 27.6413 193.766 27.9792 194.569 28.3269C195.369 28.6746 195.975 29.1082 196.385 29.6317C196.795 30.1533 197 30.8428 197 31.7042C197 33.1497 196.465 34.2846 195.393 35.107C194.32 35.9293 192.871 36.3415 191.045 36.3415Z" fill="#10202F"/>
<path d="M44.9041 9.16648C44.7068 10.2311 43.6618 10.9284 42.5972 10.7311C42.5074 10.7155 42.4214 10.692 42.3394 10.6647H42.3374C41.8823 10.5104 41.5268 10.1861 41.3119 9.77397V9.77202C41.0951 9.36181 41.0228 8.86566 41.1361 8.3617C41.3647 7.34791 42.4097 6.65056 43.4235 6.8791C43.4547 6.88496 43.486 6.89278 43.5153 6.90254H43.5173C44.0876 7.06076 44.5349 7.46511 44.7674 7.98275C44.9237 8.33826 44.9803 8.74651 44.9041 9.16648Z" fill="#3DDC84"/>
<path d="M46.9162 10.2037C46.6212 11.0358 46.0704 11.7546 45.3183 12.2606C45.0097 12.4696 44.6757 12.6356 44.3339 12.7528C48.8266 18.0835 50.858 25.3773 49.2075 32.7024C46.4044 45.1355 34.0553 52.9411 21.6242 50.14C9.19304 47.3389 1.38549 34.9898 4.18855 22.5567C6.98966 10.1275 19.3388 2.31995 31.7718 5.12301C34.3796 5.71097 36.7841 6.7189 38.9289 8.06085C38.9406 7.99834 38.9524 7.93388 38.968 7.87137C39.2395 6.66615 40.0384 5.69143 41.06 5.12887C38.5265 3.50758 35.6707 2.2926 32.5669 1.5933C18.1863 -1.64731 3.90141 7.38108 0.658846 21.7617C-2.58177 36.1442 6.44663 50.4271 20.8292 53.6697C35.2097 56.9103 49.4927 47.8819 52.7352 33.4994C54.6671 24.9261 52.2391 16.388 46.9162 10.2037ZM41.3101 9.77199C41.6617 10.0572 42.0055 10.3541 42.3356 10.6627H42.3375C42.4196 10.6901 42.5055 10.7135 42.5954 10.7291C43.6619 10.9264 44.7069 10.2291 44.9023 9.16449C44.9785 8.74452 44.9238 8.33627 44.7636 7.97881C44.3592 7.60572 43.9432 7.2463 43.5134 6.8986H43.5115C43.4822 6.88884 43.449 6.88298 43.4197 6.87516C42.4059 6.64662 41.3608 7.34397 41.1323 8.35776C41.019 8.85977 41.0913 9.35592 41.3081 9.76808L41.3101 9.77199Z" fill="#3DDC84"/>
<path d="M26.6969 45.1707C36.3835 45.1707 44.236 37.3181 44.236 27.6315C44.236 17.9449 36.3835 10.0924 26.6969 10.0924C17.0103 10.0924 9.15771 17.9449 9.15771 27.6315C9.15771 37.3181 17.0103 45.1707 26.6969 45.1707Z" fill="#3DDC84"/>
<path d="M34.8931 19.6169C34.901 20.1307 34.6959 20.5526 34.3521 20.9296C32.1077 23.385 29.8613 25.8501 27.6189 28.3094C26.5973 29.4325 25.5737 30.5518 24.554 31.673C24.2024 32.0559 23.8528 32.4427 23.5012 32.8255C23.1496 33.2123 22.755 33.5092 22.21 33.5639C21.6318 33.6244 21.1669 33.4389 20.7665 33.0873C20.6805 33.013 20.5966 32.929 20.5165 32.8411C19.9773 32.2356 19.4363 31.632 18.8952 31.0284C18.5787 30.6768 18.2623 30.3272 17.9459 29.9736C17.3012 29.2567 16.6547 28.5438 16.0198 27.823C15.3752 27.0924 15.3069 26.0767 15.8401 25.3481L15.846 25.3403C15.9847 25.1508 16.1566 24.9984 16.3461 24.8871C17.0063 24.4906 17.9087 24.555 18.567 25.0844C18.6549 25.1508 18.7409 25.2348 18.8229 25.3227C19.3952 25.9634 19.9656 26.608 20.536 27.2526C20.9501 27.7194 21.3603 28.1883 21.7686 28.6571C21.8389 28.7371 21.8936 28.7879 21.9483 28.8094H21.9502C22.0362 28.8446 22.1163 28.7977 22.2354 28.6688C25.3217 25.2973 28.4197 21.9356 31.508 18.568C31.9416 18.0992 32.4456 17.7906 33.0961 17.7906C34.1059 17.7847 34.8951 18.6012 34.8931 19.6169Z" fill="white"/>
<path d="M28.2692 38.5546C27.5015 39.252 26.3159 39.1934 25.6185 38.4277L22.667 35.1773C23.8058 34.9644 24.4934 34.2084 24.7317 33.9486C25.0481 33.6009 25.3646 33.2552 25.6752 32.9114L28.3962 35.9078C29.0935 36.6716 29.0369 37.8592 28.2692 38.5546Z" fill="white"/>
</svg>